<svg xmlns="http://www.w3.org/2000/svg" width="1080" height="460" viewBox="0 0 1080 460" role="img" aria-labelledby="title description">
  <title id="title">DayPlan light and dark logo versions</title>
  <desc id="description">The DayPlan logo displayed on light and dark background samples.</desc>
  <rect width="1080" height="460" rx="28" fill="#E8ECEA"/>
  <rect x="24" y="24" width="504" height="412" rx="20" fill="#FFFFFF"/>
  <rect x="552" y="24" width="504" height="412" rx="20" fill="#1D2326"/>
  <text x="60" y="82" fill="#66716D" font-family="Inter, ui-sans-serif, system-ui, sans-serif" font-size="15" font-weight="650" letter-spacing="2">LIGHT MODE</text>
  <g transform="translate(90 135) scale(1.3)" aria-hidden="true">
    <rect x="28" y="20" width="34" height="140" rx="11" fill="#30363A"/>
    <path d="M72 20h8a70 70 0 0 1 0 140h-8z" fill="#087252"/>
  </g>
  <text x="315" y="270" fill="#242B2E" font-family="Inter, ui-sans-serif, system-ui, sans-serif" font-size="43" font-weight="650" letter-spacing="-1.5">ayplan</text>
  <text x="588" y="82" fill="#AAB5B1" font-family="Inter, ui-sans-serif, system-ui, sans-serif" font-size="15" font-weight="650" letter-spacing="2">DARK MODE</text>
  <g transform="translate(618 135) scale(1.3)" aria-hidden="true">
    <rect x="28" y="20" width="34" height="140" rx="11" fill="#DCE3E1"/>
    <path d="M72 20h8a70 70 0 0 1 0 140h-8z" fill="#18A77A"/>
  </g>
  <text x="843" y="270" fill="#F3F6F5" font-family="Inter, ui-sans-serif, system-ui, sans-serif" font-size="43" font-weight="650" letter-spacing="-1.5">ayplan</text>
</svg>
